<svg xmlns="http://www.w3.org/2000/svg" width="212" height="142" viewBox="0 0 212 142" fill="none">
  <path d="M186.094 116.286V86.4131H193.006L205.257 104.634V86.4131H211.978V116.286H205.683L192.815 97.2779V116.286H186.094Z" fill="white"/>
  <path d="M159.093 116.286V86.4131H171.131C173.271 86.4131 175.143 86.8384 176.746 87.6889C178.347 88.5393 179.582 89.7229 180.446 91.2395C181.325 92.7421 181.765 94.45 181.765 96.3637C181.765 98.4047 181.339 100.205 180.489 101.764C179.653 103.323 178.44 104.535 176.852 105.4C175.264 106.25 173.385 106.675 171.216 106.675H165.983V116.286H159.093ZM170.662 100.425C171.456 100.425 172.172 100.255 172.811 99.9143C173.462 99.5741 173.967 99.0993 174.32 98.4897C174.689 97.8803 174.874 97.1929 174.874 96.4274C174.874 95.6762 174.689 95.017 174.32 94.45C173.967 93.883 173.47 93.4437 172.831 93.1319C172.194 92.8058 171.478 92.6428 170.683 92.6428H165.983V100.425H170.662Z" fill="white"/>
  <path d="M138.314 116.286L126.787 86.4131H134.145L141.144 106.612H141.229L148.248 86.4131H155.628L144.079 116.286H138.314Z" fill="white"/>
  <path d="M115.304 116.86C114.113 116.86 112.979 116.718 111.901 116.435C110.824 116.165 109.845 115.804 108.966 115.35C108.101 114.897 107.328 114.386 106.648 113.819L108.541 111.332C109.477 112.055 110.519 112.65 111.667 113.118C112.83 113.571 114.035 113.798 115.283 113.798C116.191 113.798 116.977 113.678 117.644 113.437C118.31 113.196 118.828 112.863 119.197 112.437C119.565 111.998 119.75 111.488 119.75 110.907C119.75 110.34 119.565 109.843 119.197 109.418C118.842 108.979 118.275 108.589 117.495 108.249C116.715 107.894 115.659 107.568 114.326 107.271C112.171 106.76 110.526 106.016 109.391 105.038C108.271 104.06 107.711 102.806 107.711 101.275C107.711 100.254 108.016 99.3331 108.626 98.511C109.25 97.6747 110.129 97.0156 111.263 96.5337C112.397 96.0518 113.709 95.8107 115.198 95.8107C116.531 95.8107 117.871 96.0234 119.218 96.4487C120.565 96.8739 121.735 97.5117 122.727 98.3622L120.919 100.807C120.111 100.24 119.204 99.7867 118.197 99.4465C117.204 99.0922 116.183 98.915 115.134 98.915C114.298 98.915 113.581 99.0142 112.986 99.2127C112.405 99.3968 111.958 99.6661 111.646 100.021C111.348 100.361 111.199 100.772 111.199 101.254C111.199 101.778 111.334 102.225 111.603 102.593C111.873 102.948 112.334 103.281 112.986 103.592C113.652 103.904 114.602 104.209 115.836 104.507C115.879 104.521 115.921 104.535 115.964 104.549C116.02 104.563 116.07 104.578 116.112 104.592C117.545 104.96 118.771 105.393 119.792 105.889C120.827 106.371 121.657 107.016 122.281 107.824C122.919 108.617 123.238 109.595 123.238 110.758C123.238 111.948 122.89 113.004 122.195 113.926C121.515 114.847 120.572 115.57 119.367 116.094C118.161 116.605 116.807 116.86 115.304 116.86Z" fill="white"/>
  <path d="M102.558 93.9823C104.217 92.5932 105.046 91.3884 105.046 90.3678V90.2403C104.692 90.2403 104.352 90.134 104.025 89.9213C103.699 89.7088 103.43 89.4253 103.217 89.0708C103.019 88.7165 102.919 88.341 102.919 87.944C102.919 87.4621 103.026 87.044 103.239 86.6895C103.465 86.321 103.763 86.0446 104.132 85.8603C104.501 85.6761 104.905 85.5839 105.344 85.5839C105.812 85.5839 106.223 85.669 106.578 85.8392C106.946 86.0092 107.237 86.2997 107.45 86.7108C107.677 87.1077 107.79 87.6393 107.79 88.3055C107.79 89.6804 107.485 90.9561 106.876 92.1325C106.266 93.2949 105.337 94.3934 104.089 95.428L102.558 93.9823Z" fill="white"/>
  <path d="M81.8151 116.286V85.329H85.1118V116.286H81.8151ZM84.4312 111.268L84.2398 107.441L94.7256 96.2787H98.9155L84.4312 111.268ZM96.2144 116.286L88.2809 106.123L90.5142 103.933L100.213 116.286H96.2144Z" fill="white"/>
  <path d="M70.3121 116.86C68.3837 116.86 66.6183 116.392 65.0161 115.457C63.4279 114.507 62.1659 113.231 61.2301 111.629C60.3085 110.014 59.8476 108.249 59.8476 106.335C59.8476 104.422 60.3085 102.657 61.2301 101.041C62.1659 99.4252 63.4279 98.1495 65.0161 97.214C66.6183 96.2785 68.3695 95.8107 70.2696 95.8107C71.7442 95.8107 73.0984 96.0729 74.332 96.5975C75.5798 97.1077 76.6858 97.8307 77.65 98.7661L75.9484 101.105C75.126 100.382 74.254 99.8292 73.3323 99.4465C72.4249 99.0496 71.4606 98.8511 70.4397 98.8511C69.121 98.8511 67.9016 99.1843 66.7814 99.8504C65.6612 100.517 64.7679 101.424 64.1014 102.572C63.4492 103.706 63.1231 104.96 63.1231 106.335C63.1231 107.724 63.4563 108.986 64.1227 110.12C64.7891 111.254 65.6825 112.154 66.8027 112.82C67.9229 113.472 69.1352 113.798 70.4397 113.798C71.5032 113.798 72.4886 113.607 73.3962 113.224C74.3178 112.841 75.1757 112.31 75.9697 111.629L77.6713 113.947C76.6929 114.854 75.5727 115.57 74.3107 116.094C73.0629 116.605 71.7301 116.86 70.3121 116.86Z" fill="white"/>
  <path d="M44.7391 116.775C42.9525 116.775 41.3432 116.314 39.911 115.393C38.4789 114.471 37.3588 113.21 36.5504 111.608C35.7422 110.006 35.3381 108.235 35.3381 106.293C35.3381 104.365 35.7422 102.6 36.5504 100.999C37.3588 99.3968 38.4789 98.1353 39.911 97.214C41.3432 96.2785 42.9454 95.8107 44.718 95.8107C46.5188 95.8107 48.0713 96.2927 49.3759 97.2566C50.6946 98.2204 51.6942 99.5032 52.3748 101.105C53.0555 102.692 53.3958 104.422 53.3958 106.293C53.3958 108.178 53.0484 109.921 52.3536 111.523C51.6729 113.111 50.6804 114.386 49.3759 115.35C48.0713 116.3 46.5259 116.775 44.7391 116.775ZM45.0369 113.607C46.3273 113.607 47.4617 113.295 48.4401 112.671C49.4327 112.048 50.1983 111.183 50.7371 110.077C51.2759 108.972 51.5453 107.717 51.5453 106.314C51.5453 104.925 51.2759 103.678 50.7371 102.572C50.1983 101.452 49.4327 100.573 48.4401 99.9356C47.4617 99.2976 46.3344 98.9787 45.0582 98.9787C43.782 98.9787 42.6547 99.2976 41.6763 99.9356C40.6979 100.573 39.9394 101.452 39.4006 102.572C38.8618 103.678 38.5924 104.925 38.5924 106.314C38.5924 107.717 38.8618 108.972 39.4006 110.077C39.9394 111.183 40.6979 112.048 41.6763 112.671C42.6547 113.295 43.7749 113.607 45.0369 113.607ZM54.6081 104.315V116.286H51.3964V111.927L52.0983 106.335L51.907 100.807L54.6081 104.315ZM51.7155 107.079L51.2901 101.275V96.2785H54.6081V107.079H51.7155Z" fill="white"/>
  <path d="M26.8139 116.286V85.329H30.0893V116.286H26.8139Z" fill="white"/>
  <path d="M0 116.286V86.4131H11.9108C13.6124 86.4131 15.0941 86.7392 16.3561 87.3912C17.6322 88.0291 18.6106 88.9362 19.2912 90.1127C19.986 91.275 20.3335 92.6145 20.3335 94.1312C20.3335 95.0525 20.1491 95.9384 19.7805 96.7889C19.4259 97.6393 18.9368 98.3905 18.3128 99.0425C17.689 99.6805 16.9942 100.155 16.2285 100.467C17.2778 100.708 18.2349 101.19 19.0998 101.913C19.9647 102.622 20.6454 103.507 21.1417 104.571C21.6379 105.634 21.8861 106.775 21.8861 107.994C21.8861 109.681 21.489 111.155 20.695 112.416C19.901 113.663 18.8375 114.62 17.5046 115.286C16.1859 115.953 14.7396 116.286 13.1657 116.286H0ZM12.953 113.288C13.9881 113.288 14.9169 113.047 15.7393 112.565C16.5759 112.083 17.2281 111.417 17.6961 110.566C18.164 109.716 18.398 108.759 18.398 107.696C18.398 106.69 18.1498 105.761 17.6535 104.911C17.1714 104.06 16.4837 103.387 15.5904 102.891C14.6971 102.395 13.6762 102.147 12.5276 102.147H3.40309V113.288H12.953ZM11.7194 99.3189C12.6552 99.3189 13.5202 99.0993 14.3142 98.6599C15.1083 98.2062 15.7393 97.5968 16.2072 96.8313C16.6751 96.066 16.9091 95.2368 16.9091 94.3437C16.9091 93.4224 16.6964 92.5862 16.271 91.8349C15.8598 91.0837 15.2643 90.4883 14.4844 90.0489C13.7045 89.6095 12.8041 89.3898 11.7832 89.3898H3.40309V99.3189H11.7194Z" fill="white"/>
  <path d="M107.246 29.4307C106.383 16.3918 108.858 9.06421 112.602 4.79786L114.06 3.34721C118.724 -0.73638 123.411 -0.61072 125.731 1.2169C126.114 1.52532 126.451 1.82227 126.754 2.11926C129.155 4.51801 129.041 6.91106 128.468 10.1151C131.676 9.54397 134.071 9.45259 136.471 11.8285C136.789 12.151 137.088 12.4904 137.368 12.8451C139.203 15.1697 139.323 19.8529 135.243 24.5133L133.784 25.9697C129.52 29.7106 122.187 32.1836 109.138 31.3212L116.1 23.0112C116.537 23.338 117.072 23.5078 117.618 23.493C118.163 23.4781 118.688 23.2796 119.107 22.9296C119.526 22.5795 119.814 22.0985 119.925 21.5644C120.036 21.0303 119.963 20.4743 119.718 19.9868C119.473 19.4991 119.071 19.1083 118.576 18.8776C118.082 18.6471 117.524 18.5901 116.992 18.7161C116.461 18.842 115.988 19.1435 115.65 19.5717C115.312 19.9998 115.128 20.5296 115.128 21.0752C115.128 21.5996 115.3 22.1097 115.62 22.5258L107.246 29.4307ZM76.9928 26.004C81.2624 29.7449 88.5957 32.2179 101.645 31.3555L94.706 23.0112C94.21 23.3839 93.5911 23.5549 92.9741 23.4897C92.357 23.4244 91.7877 23.1278 91.3808 22.6597C90.9739 22.1915 90.7597 21.5867 90.7815 20.967C90.8033 20.3473 91.0595 19.759 91.4982 19.3206C91.9371 18.8822 92.5258 18.6262 93.146 18.6044C93.7661 18.5826 94.3714 18.7966 94.8399 19.2032C95.3084 19.6097 95.6053 20.1787 95.6706 20.7952C95.7358 21.4118 95.5647 22.0303 95.1918 22.5258L103.565 29.4594C104.428 16.4204 101.954 9.09276 98.2097 4.82642L96.7522 3.37576C92.0824 -0.70783 87.4012 -0.582171 85.0749 1.24545C84.6976 1.55385 84.3547 1.85083 84.0575 2.14781C81.6569 4.54656 81.7712 6.93961 82.3427 10.1437C79.1362 9.57251 76.7412 9.48114 74.3407 11.857C74.0216 12.1794 73.7201 12.5188 73.4376 12.8736C71.6028 15.1982 71.4828 19.8814 75.5696 24.5419L76.9928 26.004ZM133.813 40.385C129.549 36.6441 122.216 34.1712 109.167 35.0336L116.1 43.4007C116.537 43.0739 117.072 42.9041 117.618 42.919C118.163 42.9338 118.688 43.1323 119.107 43.4823C119.526 43.8323 119.814 44.3134 119.925 44.8474C120.036 45.3816 119.963 45.9376 119.718 46.4251C119.473 46.9128 119.071 47.3036 118.576 47.5342C118.082 47.7648 117.524 47.8217 116.992 47.6958C116.461 47.5697 115.988 47.2684 115.65 46.8402C115.312 46.412 115.128 45.8823 115.128 45.3368C115.128 44.8122 115.3 44.3022 115.62 43.8861L107.246 36.9469C106.383 49.9858 108.858 57.3134 112.602 61.574L114.06 63.0304C118.724 67.1139 123.411 66.9883 125.731 65.1549C126.088 64.8745 126.429 64.5752 126.754 64.2584C129.155 61.8596 129.041 59.4666 128.468 56.2625C131.676 56.8336 134.071 56.925 136.471 54.549C136.789 54.2265 137.088 53.8872 137.368 53.5325C139.203 51.208 139.323 46.5247 135.243 41.8643L133.813 40.385ZM95.1918 43.8861C95.5647 44.3816 95.7358 45.0001 95.6706 45.6166C95.6053 46.2332 95.3084 46.8021 94.8399 47.2087C94.3714 47.6152 93.7661 47.8292 93.146 47.8074C92.5258 47.7856 91.9371 47.5297 91.4982 47.0913C91.0595 46.6529 90.8033 46.0645 90.7815 45.4449C90.7597 44.8253 90.9739 44.2204 91.3808 43.7522C91.7877 43.284 92.357 42.9875 92.9741 42.9223C93.5911 42.857 94.21 43.0279 94.706 43.4007L101.645 35.005C88.5957 34.1426 81.2624 36.6156 76.9928 40.3565L75.541 41.8586C71.4542 46.519 71.5743 51.2023 73.409 53.5268C73.6915 53.8816 73.993 54.2209 74.312 54.5435C76.7127 56.9421 79.1076 56.828 82.3142 56.2568C81.7426 59.4609 81.6512 61.8539 84.0289 64.2527C84.3517 64.5696 84.6913 64.8689 85.0464 65.1494C87.3727 66.9827 92.0539 67.1082 96.7236 63.0247L98.1811 61.5683C101.925 57.3077 104.4 49.9801 103.537 36.9412L95.1918 43.8861Z" fill="url(#paint0_linear_203_8784)"/>
  <defs>
    <linearGradient id="paint0_linear_203_8784" x1="79.182" y1="6.99102" x2="131.583" y2="59.4275" gradientUnits="userSpaceOnUse">
      <stop stop-color="#0DCAF0"/>
      <stop offset="1" stop-color="#4DD4AC"/>
    </linearGradient>
  </defs>
</svg>