<svg width="40" height="40" viewBox="0 0 40 40" fill="none" xmlns="http://www.w3.org/2000/svg">
	<path d="M21.1189 17.7356C20.599 9.87813 22.0899 5.46231 24.3452 2.89131L25.2232 2.0171C28.0329 -0.44376 30.8563 -0.368034 32.2543 0.733333C32.485 0.919188 32.6881 1.09814 32.8706 1.27712C34.3167 2.72266 34.2479 4.16476 33.9036 6.09559C35.8352 5.75141 37.2779 5.69635 38.7241 7.12813C38.9152 7.32248 39.0956 7.52701 39.2647 7.74077C40.3699 9.14156 40.4423 11.9638 37.9837 14.7723L37.1058 15.6499C34.5371 17.9043 30.1195 19.3946 22.2586 18.8749L26.4524 13.8671C26.7158 14.0641 27.038 14.1663 27.3667 14.1574C27.6955 14.1485 28.0116 14.0288 28.2638 13.8179C28.516 13.607 28.6896 13.3171 28.7565 12.9952C28.8234 12.6734 28.7795 12.3384 28.632 12.0445C28.4846 11.7506 28.2423 11.5151 27.9442 11.3762C27.6462 11.2372 27.3099 11.2028 26.9899 11.2787C26.6699 11.3547 26.385 11.5363 26.1812 11.7944C25.9774 12.0523 25.8667 12.3716 25.8671 12.7003C25.8666 13.0164 25.9707 13.3238 26.1632 13.5746L21.1189 17.7356ZM2.894 15.6706C5.46608 17.9249 9.88375 19.4152 17.7446 18.8955L13.5645 13.8671C13.2658 14.0917 12.893 14.1947 12.5212 14.1554C12.1495 14.1161 11.8065 13.9373 11.5614 13.6552C11.3163 13.3731 11.1873 13.0086 11.2005 12.6352C11.2136 12.2618 11.3678 11.9073 11.6322 11.643C11.8965 11.3788 12.2512 11.2246 12.6248 11.2115C12.9984 11.1984 13.363 11.3273 13.6452 11.5723C13.9274 11.8173 14.1062 12.1602 14.1456 12.5317C14.1849 12.9033 14.0819 13.2759 13.8572 13.5746L18.9015 17.7529C19.4214 9.89531 17.9305 5.47952 15.6752 2.90851L14.7972 2.03431C11.9841 -0.426555 9.16406 -0.350829 7.7627 0.750537C7.53545 0.936391 7.32886 1.11535 7.14981 1.29432C5.70366 2.73987 5.77253 4.18197 6.11685 6.1128C4.18521 5.76863 2.7425 5.71355 1.29635 7.14533C1.10412 7.33962 0.922516 7.54413 0.752327 7.75798C-0.352944 9.15875 -0.425254 11.981 2.03664 14.7895L2.894 15.6706ZM37.123 24.337C34.5543 22.0826 30.1367 20.5923 22.2759 21.112L26.4524 26.1542C26.7158 25.9573 27.038 25.855 27.3667 25.8639C27.6955 25.8729 28.0116 25.9925 28.2638 26.2034C28.516 26.4144 28.6896 26.7042 28.7565 27.0261C28.8234 27.348 28.7795 27.683 28.632 27.9769C28.4846 28.2707 28.2423 28.5063 27.9442 28.6452C27.6462 28.7842 27.3099 28.8185 26.9899 28.7426C26.6699 28.6666 26.385 28.485 26.1812 28.227C25.9774 27.969 25.8667 27.6498 25.8671 27.321C25.8666 27.0049 25.9707 26.6975 26.1632 26.4468L21.1189 22.2651C20.599 30.1226 22.0899 34.5384 24.3452 37.1059L25.2232 37.9836C28.0329 40.4445 30.8563 40.3688 32.2543 39.2639C32.4692 39.0949 32.6749 38.9145 32.8706 38.7236C34.3167 37.278 34.2479 35.8359 33.9036 33.9051C35.8352 34.2493 37.2779 34.3043 38.7241 32.8726C38.9152 32.6782 39.0956 32.4737 39.2647 32.2599C40.3699 30.8591 40.4423 28.0369 37.9837 25.2284L37.123 24.337ZM13.8572 26.4468C14.0819 26.7454 14.1849 27.118 14.1456 27.4896C14.1062 27.8612 13.9274 28.2041 13.6452 28.4491C13.363 28.6941 12.9984 28.823 12.6248 28.8098C12.2512 28.7967 11.8965 28.6425 11.6322 28.3783C11.3678 28.1141 11.2136 27.7595 11.2005 27.3862C11.1873 27.0127 11.3163 26.6482 11.5614 26.3661C11.8065 26.084 12.1495 25.9052 12.5212 25.8659C12.893 25.8266 13.2658 25.9296 13.5645 26.1542L17.7446 21.0948C9.88375 20.5752 5.46608 22.0654 2.894 24.3198L2.01942 25.2249C-0.442471 28.0334 -0.370162 30.8557 0.73511 32.2565C0.905305 32.4703 1.08691 32.6748 1.27914 32.8691C2.72529 34.3147 4.16798 34.2459 6.09963 33.9016C5.7553 35.8325 5.70022 37.2746 7.13259 38.7202C7.32704 38.9111 7.53163 39.0915 7.74548 39.2605C9.14687 40.3653 11.9669 40.441 14.78 37.9802L15.658 37.1025C17.9133 34.5349 19.4042 30.1191 18.8843 22.2616L13.8572 26.4468Z" fill="url(#paint0_linear_293_1936)"/>
	<defs>
		<linearGradient id="paint0_linear_293_1936" x1="4.21275" y1="4.21296" x2="35.791" y2="35.801" gradientUnits="userSpaceOnUse">
		<stop stop-color="#0DCAF0"/>
		<stop offset="1" stop-color="#4DD4AC"/>
		</linearGradient>
	</defs>
</svg>
