<svg xmlns="http://www.w3.org/2000/svg" width="103" height="33" viewBox="0 0 103 33" fill="none">
<path d="M44.6515 32.45H36.2469L41.4996 0.569656H49.9051L44.6515 32.45ZM29.1764 0.569656L21.1639 22.4972L20.2157 17.7753L20.2166 17.777L17.3886 3.44011C17.3886 3.44011 17.0466 0.569656 13.4017 0.569656H0.155433L0 1.10946C0 1.10946 4.05075 1.94178 8.79144 4.75339L16.0933 32.4508H24.8502L38.2217 0.569656H29.1764ZM95.2828 32.45H103L96.2715 0.568804H89.5154C86.3955 0.568804 85.6356 2.94465 85.6356 2.94465L73.1008 32.45H81.862L83.6141 27.7145H94.2984L95.2828 32.45ZM86.0345 21.1728L90.4505 9.24242L92.9349 21.1728H86.0345ZM73.7579 8.23614L74.9574 1.39003C74.9574 1.39003 71.2563 0 67.3982 0C63.2274 0 53.3229 1.80022 53.3229 10.554C53.3229 18.7901 64.9475 18.8925 64.9475 23.2186C64.9475 27.5448 54.5206 26.7696 51.0795 24.0415L49.83 31.1998C49.83 31.1998 53.5828 33 59.3165 33C65.052 33 73.7044 30.0673 73.7044 22.0853C73.7044 13.7963 61.9753 13.0245 61.9753 9.42065C61.9762 5.81596 70.1614 6.27901 73.7579 8.23614Z" fill="#2566AF"/>
<path d="M20.2166 17.7762L17.3886 3.4393C17.3886 3.4393 17.0466 0.568851 13.4017 0.568851H0.155433L0 1.10866C0 1.10866 6.36669 2.41171 12.4735 7.29387C18.3125 11.9603 20.2166 17.7762 20.2166 17.7762Z" fill="#E6A540"/>
</svg>